<!--?xml version="1.0" encoding="utf-8"?-->
<!-- Generator: Adobe Illustrator 21.0.2, SVG Export Plug-In . SVG Version: 6.00 Build 0)  -->
<svg version="1.1" id="Layer_1" xmlns="http://www.w3.org/2000/svg" xmlns:xlink="http://www.w3.org/1999/xlink" x="0px" y="0px" width="228.5px" height="63px" viewBox="0 0 228.5 63" xml:space="preserve">
<style type="text/css">
	.st0{display:none;}
	.st1{display:inline;}
	.st2{fill:#1A8044;}
	.st3{fill:none;stroke:#89828C;stroke-width:1.5;stroke-linecap:round;stroke-linejoin:round;stroke-miterlimit:10;}
</style>
<g id="Layer_1_1_" class="st0">
	<g class="st1">
		<g>
			<g>
				<path class="st2 nbnOebjS_0" d="M115.1,47.3c-4.7,0-7.6-4.1-7.6-8c0-2.3,0.9-4.5,2.5-6.1c1.5-1.5,3.3-2.3,5.3-2.3l0,0
					c3.2,0,6.1,2.8,6.1,5.9c0,0.4-0.3,0.8-0.8,0.8c-0.4,0-0.8-0.3-0.8-0.8c0-2.3-2.1-4.4-4.6-4.4c-1.5,0-3,0.6-4.2,1.8
					c-1.3,1.3-2.1,3.1-2.1,5c0,3.1,2.3,6.5,6.1,6.5c5.4,0,7.8-3.4,10.1-6.7l0.2-0.2c3.2-4.5,5.1-9.7,6.9-15.2c0.4-1.1,0.7-2.2,1-3.3
					c0.8-2.7,1.6-5.4,2.9-7.9c-1.1,0.4-2.6,0.8-4.6,1.4c-1.5,0.4-3.2,0.9-5.1,1.5c-4.5,1.4-6.8,3.5-6.8,6.2c0,0.7,0.5,3.5,2.9,3.7
					c2.6,0.2,4-2.2,4-2.2c0.2-0.4,0.7-0.5,1-0.3c0.4,0.2,0.5,0.7,0.3,1c-0.1,0.1-1.9,3.2-5.4,3c-3.3-0.2-4.4-3.6-4.4-5.2
					c0-3.5,2.6-6,7.8-7.6c2-0.6,3.7-1.1,5.2-1.5c3.5-1,6-1.8,6.5-2.4l0,0l0,0c0.3-0.3,0.7-0.4,1.1-0.2c0.3,0.3,0.4,0.7,0.2,1.1
					c-2.1,2.9-3.2,6.4-4.2,9.9c-0.3,1.1-0.7,2.2-1,3.3c-1.9,5.6-3.8,10.9-7.1,15.6l-0.2,0.2C124,43.4,121.2,47.3,115.1,47.3z"></path>
			</g>
			<g>
				<path class="st2 nbnOebjS_1" d="M134.9,44h-0.1c-1,0-1.9-0.5-2.5-1.2c-0.8-1-1-2.4-0.8-3.6c0.7-3.1,2.9-5.3,5-7.5c0.5-0.6,1-1.1,1.5-1.6
					c-0.4-7.5-0.5-13.8-0.4-19.5c0-0.4,0.4-0.7,0.8-0.7c0.4,0,0.8,0.4,0.7,0.8c-0.1,5.3,0,11,0.3,17.8c1.8-2,3.6-4.1,5.6-5.9
					c0.1-0.1,0.1-0.1,0.2-0.2c1.7-9,4.3-17.8,10.7-21.6c1.3-0.8,2.8-0.8,4-0.2c1.5,0.8,1.9,2.7,1.7,4.1c-0.9,6.5-7.1,11.8-12.1,16
					c-1,0.8-2,1.7-2.8,2.4c0,0,0,0,0,0.1c-0.1,0.6-0.2,1.2-0.3,1.8c-1,5.3-2.6,13.4-0.5,16c0.4,0.5,1,0.8,1.8,0.8l0,0
					c3.4,0,5.5-3.7,6.6-6.8c0.1-0.4,0.6-0.6,1-0.5s0.6,0.6,0.5,1c-1.9,5.1-4.6,7.8-8,7.8c0,0,0,0-0.1,0c-1.2,0-2.3-0.5-3-1.4
					c-2.6-3.1-1.1-10.8,0.1-17c-1.6,1.6-3.1,3.4-4.6,5l-0.6,0.7c0,0.4,0,0.9,0.1,1.3c0,0.3,0,0.6,0.1,1c0.2,3,0.5,7.6-1.6,9.8
					C137.3,43.6,136.2,44,134.9,44z M138.1,32.1c-0.2,0.2-0.4,0.4-0.5,0.6c-2,2-4,4.1-4.6,6.8c-0.2,0.8,0,1.8,0.5,2.4
					c0.3,0.4,0.8,0.7,1.4,0.7c0.9,0,1.6-0.3,2.2-0.8c1.7-1.8,1.4-6.1,1.2-8.7C138.1,32.7,138.1,32.4,138.1,32.1z M158.2,1.5
					c-0.5,0-1,0.1-1.5,0.4c-6,3.5-8.4,12.6-9.6,18.6c0.4-0.4,0.9-0.8,1.4-1.2c5-4.3,10.8-9.1,11.6-15.1c0.1-0.9-0.1-2-1-2.5
					C158.9,1.6,158.5,1.5,158.2,1.5z"></path>
			</g>
			<g>
				<path class="st2 nbnOebjS_2" d="M182.3,43.2c-0.1,0-0.1,0-0.2,0l0,0c-1.5,0-2.7-0.6-3.8-1.8c-0.4-0.5-0.8-1-1.1-1.7c-2,2-4.4,3.5-7.1,3.5
					c-1.4,0-2.6-0.6-3.6-1.7c-0.4-0.5-0.8-1-1.1-1.7c-2,2-4.3,3.4-7.1,3.4c-1.4,0-2.5-0.5-3.3-1.5c-2-2.7-0.7-8.5,0.8-12.8
					c0.1-0.4,0.6-0.6,1-0.5s0.6,0.6,0.5,1c-1.8,5.6-2.2,9.8-1,11.5c0.4,0.6,1.1,0.9,2,0.9c2.5,0,4.6-1.4,6.5-3.4
					c-1-3.2-1.2-7.9-0.4-13.5c0.9-6.7,3.9-13.6,6.6-15.2c0.9-0.5,1.5-0.4,2-0.2c4,1.6,1.7,12.4,0.1,16.7c-0.1,0.4-2.4,7.6-6.5,12.6
					c0.3,0.8,0.7,1.4,1.1,1.9c0.7,0.8,1.5,1.2,2.5,1.2c2.5,0,4.7-1.4,6.5-3.5c-1.1-3.3-1.3-7.9-0.5-13.4c0.9-6.6,4.1-13.7,6.7-15.2
					c0.8-0.5,1.5-0.4,1.9-0.2c4,1.6,1.7,12.4,0.1,16.7c-0.1,0.4-2.3,7.6-6.5,12.5c0.3,0.7,0.7,1.4,1.1,1.9c0.7,0.9,1.6,1.3,2.6,1.3
					c2.9,0.1,3.9-1.9,5.3-5.2c0.3-0.6,0.5-1.2,0.8-1.9c0.2-0.4,0.6-0.5,1-0.4c0.4,0.2,0.5,0.6,0.4,1c-0.3,0.6-0.5,1.2-0.8,1.8
					C187.5,40.1,186.2,43.2,182.3,43.2z M172.2,10.7c-0.1,0-0.3,0.1-0.5,0.2c-2,1.2-5,7.5-5.9,14.1c-0.6,4.8-0.6,8.9,0.1,11.9
					c3.6-4.7,5.6-11.2,5.6-11.3c2-5.1,3.1-13.9,0.8-14.8C172.3,10.7,172.3,10.7,172.2,10.7z M184,10.7c-0.1,0-0.3,0.1-0.5,0.2
					c-2,1.2-5,7.6-5.9,14.1c-0.7,4.7-0.6,8.8,0.2,11.8c3.6-4.7,5.6-11.2,5.6-11.3c2-5.1,3.1-13.9,0.8-14.8
					C184.1,10.7,184,10.7,184,10.7z"></path>
			</g>
			<g>
				<path class="st2 nbnOebjS_3" d="M157,25.2A0.9,0.9 0,1,1 158.8,25.2A0.9,0.9 0,1,1 157,25.2"></path>
			</g>
			<g>
				<path class="st2 nbnOebjS_4" d="M215.8,46.5c-0.4,0-0.8,0-1.2-0.1c-2.5-0.4-4.1-1.6-4.9-3.4c-1.8-4.3,1.8-10.9,3.6-13.8
					c-1.3-0.1-3.3-0.2-5.5-0.6c-1.4,3-3.9,7.1-5.4,8.9c-2.5,3-5.9,4.8-9.1,4.8c-1.5,0-2.8-0.5-3.7-1.5c-1-1-1.6-2.4-1.6-4
					c0-2.4,0.4-6.1,3.6-9.5c1.5-1.6,3.6-2.3,5.6-2c1.7,0.3,3,1.2,3.5,2.5c0.5,1.1,0.4,2.4-0.1,3.6c-0.7,1.5-2,2.6-3.7,3.2
					c-2.9,1-5.8,0.4-7.2,0c-0.1,0.8-0.2,1.5-0.2,2.2c0,1.2,0.4,2.2,1.1,2.9c0.7,0.7,1.6,1.1,2.7,1.1c2.8,0,5.7-1.6,8-4.3
					c1.3-1.6,3.7-5.4,5-8.3c-3.1-0.8-6.1-2.2-7.5-4.6c-0.9-1.6-1.2-3.6-0.7-5.3c0.4-1.4,1.2-2.5,2.3-3.1c1.3-0.7,3-0.8,4.6-0.1
					c2,0.9,3.3,2.7,3.9,5.1c0.8,3.5-0.1,6.1-0.5,6.9c3.3,0.6,6.2,0.6,6.3,0.6c0.3,0,0.5,0.1,0.7,0.4c0.1,0.2,0.1,0.6,0,0.8
					c-3,4.5-5.5,10.4-4.2,13.5c0.6,1.4,1.8,2.2,3.8,2.5c1.6,0.3,3.2-0.1,4.4-1.2c1.5-1.3,2.4-3.4,2.3-5.8c0-0.4,0.3-0.8,0.7-0.8
					s0.8,0.3,0.8,0.7c0,2.9-1,5.4-2.9,7C218.9,45.9,217.4,46.5,215.8,46.5z M189.8,33.1c1.2,0.3,3.8,0.9,6.4,0.1
					c1.3-0.4,2.3-1.3,2.8-2.4c0.4-0.8,0.4-1.7,0.1-2.4c-0.3-0.8-1.3-1.4-2.4-1.6c-1.5-0.3-3.1,0.3-4.2,1.5
					C191.1,29.9,190.3,31.5,189.8,33.1z M202.6,16.1c-0.6,0-1.1,0.1-1.6,0.4c-0.7,0.4-1.3,1.2-1.6,2.2c-0.4,1.4-0.2,2.9,0.5,4.1
					c1.2,2.1,4,3.3,6.8,4l0,0v-0.1c0,0,1.3-2.5,0.5-6.2c-0.6-2.6-2.2-3.6-3-4C203.7,16.2,203.1,16.1,202.6,16.1z"></path>
			</g>
		</g>
		<g>
			<g>
				<g>
					<path class="st2 nbnOebjS_5" d="M17.7,29.3c-0.4,0-0.7-0.3-0.7-0.7c-0.1-0.4,0.2-0.8,0.7-0.9c3.5-0.5,7.2-2.3,10.5-4h0.1
						c3.5-1.8,6.8-4.2,10.7-7.8l0.3-0.3c2.1-2,4.8-4.5,8.1-4.5c3.7,0,4.8,4.3,4.8,4.5c0.1,0.4-0.2,0.8-0.6,0.9
						c-0.4,0.1-0.8-0.2-0.9-0.6c0-0.1-0.8-3.3-3.3-3.3c-2.8,0-5.1,2.2-7.1,4.1L40,17c-4,3.7-7.4,6.2-11,8.1h-0.1
						c-3.3,1.7-7.1,3.6-10.9,4.1C17.8,29.3,17.8,29.3,17.7,29.3z"></path>
				</g>
				<g>
					<path class="st2 nbnOebjS_6" d="M46.8,59.4c-0.3,0-0.6,0-1,0c-12.5-0.5-17.2-13.7-20.1-21.6c-0.6-1.6-1-2.9-1.5-4
						c-2.5-5.7-6.1-4.6-6.3-4.5c-0.4,0.1-0.8-0.1-1-0.5c-0.1-0.4,0.1-0.8,0.5-1c0.1,0,5.1-1.7,8.2,5.3c0.5,1.1,1,2.5,1.5,4.1
						c2.9,8.1,7.2,20.2,18.7,20.6c13.8,0.5,21.5-10.6,21.5-10.7c0.2-0.3,0.7-0.4,1.1-0.2c0.3,0.2,0.4,0.7,0.2,1.1
						C68.6,48.2,60.8,59.4,46.8,59.4z"></path>
				</g>
			</g>
			<g>
				<path class="st2 nbnOebjS_7" d="M42,43.2c-4.1,0-5.2-3.4-5.2-5.4c0-1.3,0-5.5,3.5-9.2c1.4-1.5,3.5-2.3,5.5-1.9c1.6,0.3,2.9,1.2,3.4,2.5
					c0.4,1,0.4,2.3-0.1,3.5c-0.7,1.5-1.9,2.6-3.6,3.1c-2.8,0.9-5.6,0.4-7,0c-0.1,0.9-0.1,1.7-0.1,2.1c0,0.6,0.2,3.9,3.7,3.9
					c3.9,0,7.4-1.6,10.6-4.7c-0.6-3-0.7-7-0.1-11.7c0.9-6.5,3.8-13.2,6.4-14.8c0.8-0.5,1.5-0.4,1.9-0.2c3.9,1.5,1.7,12.1,0.1,16.2
					c-0.1,0.1-1.5,4.2-4.5,8.3c-0.7,1-1.5,1.8-2.2,2.6c0.4,1.3,0.9,2.4,1.5,3.1c0.7,0.8,1.4,1.1,2.4,1.1c2.4,0,4.5-1.4,6.3-3.4
					c-1.1-3.2-1.2-7.7-0.5-13c0.9-6.5,3.9-13.3,6.5-14.8c0.8-0.5,1.5-0.4,1.9-0.2c3.9,1.5,1.7,12.1,0.1,16.2
					c-0.1,0.4-2.3,7.3-6.3,12.1c0.3,0.7,0.7,1.3,1.1,1.8c0.7,0.8,1.6,1.2,2.6,1.2c3.7,0.1,5.6-4.5,6.4-8.4c0.1-0.4,0.5-0.7,0.9-0.6
					c0.4,0.1,0.7,0.5,0.6,0.9c-1.4,6.4-4.1,9.7-7.9,9.6l0,0c-1.4,0-2.7-0.6-3.7-1.8c-0.4-0.5-0.7-1-1-1.6c-1.9,2-4.3,3.3-6.9,3.3
					c-1.4,0-2.6-0.6-3.5-1.6c-0.6-0.7-1.2-1.7-1.6-2.9C49.7,41.6,46,43.2,42,43.2z M71.6,11.6c-0.1,0-0.3,0-0.4,0.1
					c-1.9,1.1-4.8,7.3-5.8,13.7c-0.6,4.6-0.6,8.5,0.1,11.4C69,32.3,71,26.1,71,26c1.9-4.9,3-13.5,0.8-14.3
					C71.7,11.6,71.7,11.6,71.6,11.6z M60.2,11.6c-0.1,0-0.3,0.1-0.5,0.2c-2,1.2-4.8,7.3-5.7,13.7c-0.5,3.9-0.6,7.4-0.2,10.1
					c0.5-0.5,0.9-1.1,1.4-1.7c2.9-3.9,4.3-7.9,4.3-7.9C61.4,21.1,62.5,12.6,60.2,11.6C60.3,11.6,60.3,11.6,60.2,11.6z M38.8,34.2
					c1.2,0.3,3.7,0.9,6.2,0.1c1.3-0.4,2.2-1.2,2.7-2.3c0.4-0.8,0.4-1.6,0.1-2.3c-0.3-0.8-1.2-1.4-2.3-1.6c-1.5-0.3-3,0.3-4.1,1.5
					C40,31.2,39.2,32.8,38.8,34.2z"></path>
			</g>
			<g>
				<path class="st2 nbnOebjS_8" d="M80.5,43.2c-0.4,0-0.7,0-1.1-0.1c-1-0.2-1.9-0.8-2.4-1.8c-2.4-3.9,0.4-13.1,0.5-13.5s0.5-0.6,0.9-0.5
					s0.6,0.5,0.5,0.9c-0.7,2.5-2.3,9.5-0.6,12.3c0.4,0.6,0.8,0.9,1.4,1.1c4.8,1,7.2-7.1,8.6-13.2c0.1-0.4,0.5-0.7,0.9-0.6
					s0.7,0.5,0.6,0.9C88.8,32.8,86.5,43.2,80.5,43.2z"></path>
			</g>
			<g>
				<path class="st2 nbnOebjS_9" d="M75.3,63c-0.5,0-1-0.1-1.5-0.2c-1.7-0.5-2.8-1.5-3.3-3.1c-0.9-2.9,0.6-7.1,2.5-9.5
					c3.1-3.9,7.5-5.6,12.2-6.6c1.4-6.4,3.1-15.1,3.1-15.3c0.1-0.4,0.5-0.7,0.9-0.6s0.7,0.5,0.6,0.9c-0.1,0.5-1.7,8.4-3,14.6
					c0.5-0.1,1-0.2,1.5-0.3c4.9-0.9,9.9-2.2,12.2-6.2c0.8-1.3,1.6-4-0.3-5.4c-0.3-0.3-0.4-0.7-0.1-1.1c0.3-0.3,0.7-0.4,1.1-0.1
					c2.4,1.8,2,5,0.7,7.3c-2.6,4.6-8.2,6-13.3,6.9c-0.7,0.1-1.4,0.3-2.1,0.4c-0.5,2.5-1,4.6-1.2,5.5c-1.2,4.3-3.7,10-7.2,12
					C77.2,62.8,76.3,63,75.3,63z M84.9,45.2c-4.2,1-8,2.6-10.7,5.9c-1.7,2.1-3,5.8-2.3,8.1c0.3,1.1,1.1,1.8,2.3,2.1
					c1.1,0.3,2.1,0.2,3.1-0.4c3.3-1.9,5.6-7.8,6.5-11C84.1,49.1,84.5,47.4,84.9,45.2z"></path>
			</g>
			<g>
				<path class="st2 nbnOebjS_10" d="M5.7,43.2c-0.3,0-0.7,0-1.1-0.1c-1.5-0.2-2.8-1-3.7-2.3c-0.8-1.2-1.1-2.7-0.8-4.1c0.5-2.4,2.7-4.8,5.3-4.5
					c0.4,0.1,0.7,0.4,0.6,0.9c-0.1,0.4-0.5,0.7-0.9,0.6C3.5,33.5,2,35.2,1.6,37c-0.2,1,0,2,0.6,2.9s1.6,1.5,2.7,1.7
					c4.4,0.6,8.3-3.8,11.5-13.2c0.6-1.7,1.4-4,2.3-6.3c-3.3,1-6.2,1-7.8,0.9h-0.5c-3.6,0-6.9-3-7.2-6.5c-0.3-3.1,1.7-6.3,4.7-7.3
					c3.2-1.1,7,0.4,8.4,3.3c0.2,0.4,0,0.8-0.4,1s-0.8,0-1-0.4c-1.1-2.2-4-3.4-6.5-2.6c-2.3,0.8-3.9,3.3-3.7,5.7
					c0.3,2.8,2.9,5.1,5.7,5.1H11c1.8,0,5,0.1,8.5-1.3c0.9-2.4,1.8-4.5,2.6-5.9c0.6-1.2,2.8-5,5-5.6c0.6-0.2,1.1-0.1,1.5,0.2
					c0.7,0.4,1.1,1.1,1.3,1.9c0.3,1.6-0.6,3.8-2.3,5.6c-2.2,2.5-4.6,4-7,5c-1.1,2.9-2.1,5.8-2.7,7.5C14.6,38.3,10.5,43.2,5.7,43.2z
					 M27.6,10c-0.1,0-0.1,0-0.2,0c-1,0.3-2.7,2.3-4.1,4.9c-0.6,1-1.2,2.6-1.9,4.3c1.7-0.9,3.4-2.2,5-4c1.3-1.4,2.1-3.2,1.9-4.4
					c-0.1-0.4-0.2-0.7-0.5-0.8C27.7,10.1,27.6,10,27.6,10z"></path>
			</g>
		</g>
	</g>
</g>
<g id="Layer_2">
	<path class="st3 nbnOebjS_11" d="M15.8,13.5c0,0-4.2-7-9.8-2.3c-4.1,3.5-2.3,9.1,2.1,10.4c4.5,1.3,12.1,0.8,18.3-5.1c3.4-3.2,3.6-7.8,0.7-7.1
		c-2.1,0.5-4.2,4-9.1,17.4C13.2,40.1,8.4,44,3.3,41.9c-5.2-2.2-2-10.7,2.7-8.8"></path>
	<path class="st3 nbnOebjS_12" d="M51.5,16.6c0,0-0.5-4.5-3.9-4.7c-6.3-0.3-14.4,15.2-30.1,16.5c2.7-0.2,4.8,1.9,6.3,3.9
		C29,39.5,28.3,48.7,36,54.4c9.7,7.2,27.4,4.4,32.4-7.4"></path>
	<path class="st3 nbnOebjS_13" d="M38.1,35.2c2.6,0.6,5.7,0.7,8.1-0.7c1.4-0.8,2.6-2.6,2.5-4.3c-0.2-2.9-3-3-5.2-2.3c-3.4,1.1-5.5,4.3-6.1,7.8
		c-0.5,3.3,1,6.7,4.6,7c4,0.4,7.9-2.1,10.7-4.6c4-3.7,6.9-8.6,8.5-13.8c0.9-2.8,3.6-12.3-1.1-13.3c-3.7-0.8-5.6,6.2-6.3,8.7
		c-1.8,6.5-2.7,14.4,0.6,20.5c1.7,3.2,5.2,3,7.9,1.2c4.7-3.1,7.8-7.9,9.7-13.2c1-2.7,5.6-18.4-0.9-17.7c-2.2,0.2-3.8,3.5-4.6,5.3
		c-2.6,6.3-3.6,13.8-2.1,20.5c0.5,2.3,2.2,6.6,5.3,6.4c2.1-0.1,6.1,0.2,8.3-15.2c0,0-2.1,10.8-0.9,12.7c1.7,2.6,4.4,2.3,6.7,0.4
		c2.3-1.9,4.3-6.4,5.1-12.2c-0.5,3.5-1.1,7-1.8,10.5c-0.8,3.9-1.6,7.7-2.9,11.5c-1.1,3.3-2.2,7-4.6,9.6c-1.1,1.2-2.8,2.3-4.6,2.2
		c-2.3-0.1-3.8-2.4-4.2-4.5c-1-6.9,7.2-10.6,12.8-11.7c2.1-0.4,4.2-0.9,6.2-1.5c2.2-0.6,4.4-1.4,6.4-2.5c2.7-1.5,5.1-4.2,5.4-7.5
		c0.1-1.6-0.4-3.3-1.9-4"></path>
	<path class="st3 nbnOebjS_14" d="M127.7,22.8c0,0-1.3,3.7-5.3,3.3c-2.8-0.2-3.7-3.2-3.3-5.6c0.4-2.3,2.4-3.9,4.4-4.8c3.3-1.5,6.9-2.2,10.5-3.2
		c1.4-0.4,4-0.7,4.5-2.4c-0.5,1.6-1.3,3.1-2,4.6c-1.6,3.6-3,7.3-4.2,11c-1.3,3.9-2.6,7.8-4.7,11.4c-2,3.5-4.9,7.2-8.8,8.7
		c-0.8,0.3-1.6,0.5-2.4,0.6c-2.7,0.4-6-0.3-7.4-2.8c-0.6-1.1-0.9-2.3-0.9-3.5c-0.1-1.7,0.3-3.4,1.1-4.8c1.2-2,3.3-3.3,5.6-3.6
		c3.1-0.4,6.5,2.7,5.7,5.9"></path>
	<path class="st3 nbnOebjS_15" d="M138.4,10.2c0.1,5.2,0.2,10.5,0.3,15.7c0,1.5,0,2.9,0.1,4.4c0.2,2.9,1,5.7,0.4,8.6c-0.5,2.4-2.7,5.5-5.5,4.3
		c-1.5-0.6-1.9-2.1-1.8-3.6c0.6-4.7,5.2-7.3,8.3-10.2c3.2-3,6.4-6,9.5-9.1c4-4,8.5-7.9,10.5-13.4c0.5-1.5,1-3.4,0.2-4.9
		c-1.3-2.5-4.9-0.3-6.3,0.9c-1.9,1.6-3.3,3.8-4.4,6c-1.7,3.6-2.7,7.5-3.7,11.4c-0.9,3.5-1.6,7.1-2,10.8c-0.3,2.8-0.5,5.9,0.3,8.6
		c0.4,1.4,1.3,2.8,2.9,2.8c6.4,0.1,8.4-9.9,8.4-9.9"></path>
	<path class="st3 nbnOebjS_16" d="M156.8,28.4c0,0-4.9,13.7,0.8,14.1c5.8,0.4,12-6.2,15.3-18.4c2.8-10.6,1.6-14.2-0.6-14.2
		c-2,0-5.5,3.8-7.3,15.5c-2,12.3,1.6,16.9,4.7,17.2c3.1,0.3,10-2.2,15-17.6c3.3-10.3,2.1-15.1-0.4-15.1c-2.5,0.1-5.6,5.7-7.3,14.5
		s0.1,18.1,5.2,18.2c5,0.1,6.9-8.3,6.9-8.3c-0.1,0.3,4.1,0.5,4.5,0.5c2.3-0.1,4.7-1.3,6-3.2c1-1.6,0.5-3.7-1-4.8
		c-1.8-1.4-4.2-0.9-5.8,0.5c-2,1.8-3.2,4.5-3.8,7.1c-0.5,2.1-0.7,4.7,1.1,6.3c2,1.8,5.2,1.4,7.4,0.2s4-3.1,5.5-5.1
		c1.7-2.3,3.2-4.9,4.3-7.6c1.4-3.3,2.1-9.1-1.4-11.5c-1.6-1.1-4.1-1.4-5.7-0.1c-3,2.4-1.1,7.4,1.7,9.2c4.4,2.7,11.1,3,12.9,2.7
		c-0.2,0-0.7,1.1-0.8,1.3c-0.3,0.5-0.6,1-0.9,1.5c-0.5,0.9-1,1.9-1.4,2.8c-1.5,3.3-2.8,7.7,0.3,10.6c2.2,2,5.9,1.8,8-0.3
		c1.8-1.8,2.5-4.5,2.8-6.9"></path>
	<path class="st3 nbnOebjS_17" d="M157.7,25.6c0,0,0-0.8,0.3-0.6C158.4,25.1,157.7,25.6,157.7,25.6"></path>
</g>
<style>.nbnOebjS_0{stroke-dasharray:225 227;stroke-dashoffset:226;animation:nbnOebjS_draw 1318ms linear 0ms forwards;}.nbnOebjS_1{stroke-dasharray:288 290;stroke-dashoffset:289;animation:nbnOebjS_draw 1686ms linear 1318ms forwards;}.nbnOebjS_2{stroke-dasharray:354 356;stroke-dashoffset:355;animation:nbnOebjS_draw 2071ms linear 3004ms forwards;}.nbnOebjS_3{stroke-dasharray:6 8;stroke-dashoffset:7;animation:nbnOebjS_draw 40ms linear 5075ms forwards;}.nbnOebjS_4{stroke-dasharray:269 271;stroke-dashoffset:270;animation:nbnOebjS_draw 1575ms linear 5116ms forwards;}.nbnOebjS_5{stroke-dasharray:87 89;stroke-dashoffset:88;animation:nbnOebjS_draw 513ms linear 6691ms forwards;}.nbnOebjS_6{stroke-dasharray:146 148;stroke-dashoffset:147;animation:nbnOebjS_draw 857ms linear 7205ms forwards;}.nbnOebjS_7{stroke-dasharray:399 401;stroke-dashoffset:400;animation:nbnOebjS_draw 2333ms linear 8063ms forwards;}.nbnOebjS_8{stroke-dasharray:73 75;stroke-dashoffset:74;animation:nbnOebjS_draw 431ms linear 10396ms forwards;}.nbnOebjS_9{stroke-dasharray:182 184;stroke-dashoffset:183;animation:nbnOebjS_draw 1067ms linear 10828ms forwards;}.nbnOebjS_10{stroke-dasharray:216 218;stroke-dashoffset:217;animation:nbnOebjS_draw 1266ms linear 11896ms forwards;}.nbnOebjS_11{stroke-dasharray:112 114;stroke-dashoffset:113;animation:nbnOebjS_draw 659ms linear 13162ms forwards;}.nbnOebjS_12{stroke-dasharray:113 115;stroke-dashoffset:114;animation:nbnOebjS_draw 665ms linear 13821ms forwards;}.nbnOebjS_13{stroke-dasharray:344 346;stroke-dashoffset:345;animation:nbnOebjS_draw 2012ms linear 14486ms forwards;}.nbnOebjS_14{stroke-dasharray:115 117;stroke-dashoffset:116;animation:nbnOebjS_draw 676ms linear 16499ms forwards;}.nbnOebjS_15{stroke-dasharray:155 157;stroke-dashoffset:156;animation:nbnOebjS_draw 910ms linear 17176ms forwards;}.nbnOebjS_16{stroke-dasharray:324 326;stroke-dashoffset:325;animation:nbnOebjS_draw 1896ms linear 18086ms forwards;}.nbnOebjS_17{stroke-dasharray:2 4;stroke-dashoffset:3;animation:nbnOebjS_draw 17ms linear 19982ms forwards;}@keyframes nbnOebjS_draw{100%{stroke-dashoffset:0;}}@keyframes nbnOebjS_fade{0%{stroke-opacity:1;}98.34710743801652%{stroke-opacity:1;}100%{stroke-opacity:0;}}</style></svg>
